<svg xmlns="http://www.w3.org/2000/svg" viewBox="0 0 128.84 67.36"><defs><style>.cls-1{fill:#2171b9;}.cls-2{fill:#fff;}</style></defs><g id="Layer_2" data-name="Layer 2"><g id="Layer_1-2" data-name="Layer 1"><polygon class="cls-1" points="0 0 0 67.36 53.68 67.36 49.85 58.21 9.15 58.21 9.15 38.25 46.01 38.25 42.18 29.1 9.15 29.1 9.15 9.15 38.34 9.15 34.51 0 0 0"/><polygon class="cls-1" points="38.34 0 57.52 67.36 71.32 67.36 90.49 0 79.01 0 64.42 53.55 49.82 0 38.34 0"/><polygon class="cls-1" points="94.33 0 128.84 0 128.84 67.36 75.15 67.36 94.33 0"/><polygon class="cls-2" points="102 9.15 119.68 9.15 119.68 58.21 90.49 58.21 102 9.15"/></g></g></svg>